<?xml version="1.0" encoding="UTF-8" standalone="no"?>
<!-- Created with Inkscape (http://www.inkscape.org/) -->

<svg xmlns:dc="http://purl.org/dc/elements/1.1/" xmlns:cc="http://creativecommons.org/ns#" xmlns:rdf="http://www.w3.org/1999/02/22-rdf-syntax-ns#" xmlns:svg="http://www.w3.org/2000/svg" xmlns="http://www.w3.org/2000/svg" version="1.0" width="20" height="20" id="svg3191">
  <metadata id="metadata3209">
    <rdf:RDF>
      <cc:Work rdf:about="">
        <dc:format>image/svg+xml</dc:format>
        <dc:type rdf:resource="http://purl.org/dc/dcmitype/StillImage" />
        <dc:title></dc:title>
      </cc:Work>
    </rdf:RDF>
  </metadata>
  <style id="style3193" />
  <defs id="defs3195" />
  <g transform="matrix(1.4285714,0,0,1.4285714,0,0)" id="g3197">
    <rect width="14" height="14" ry="2.5999999" x="0" y="0" id="rect3199" style="fill:#000000;stroke-width:0.93333334" />
    <path d="M 11,10.5 A 4.05,4.05 0 1 1 2.9,10.5 4.05,4.05 0 1 1 11,10.5 z" transform="matrix(0.8945367,0,0,0.7056598,-1.1054313,1.2736111)" id="path3201" style="fill:#886600;stroke-width:2" />
    <rect width="7.1999998" height="6.1999998" x="1.5" y="2.5" id="rect3203" style="fill:#886600;stroke-width:2" />
    <path d="M 14.4,6.4 A 2.4,2.6 0 1 1 9.6,6.4 2.4,2.6 0 1 1 14.4,6.4 z" transform="matrix(0.8886538,0,0,1.0890316,-0.7987018,-0.7693869)" id="path3205" style="fill:none;stroke:#886600" />
  </g>
</svg>
