<?xml version="1.0" encoding="UTF-8" standalone="no"?>
<svg xmlns:dc="http://purl.org/dc/elements/1.1/" xmlns:cc="http://creativecommons.org/ns#" xmlns:rdf="http://www.w3.org/1999/02/22-rdf-syntax-ns#" xmlns:svg="http://www.w3.org/2000/svg" xmlns="http://www.w3.org/2000/svg" version="1.0" width="40" height="40" id="symbol-firebrigade">
  <path d="M 26.238335,16.81378 C 26.238462,16.32649 26.518055,15.931558 26.862906,15.931558 27.207757,15.931558 27.48735,16.32649 27.487477,16.81378" id="path3172" style="fill:#0000ff;fill-opacity:1;stroke:none" />
  <circle cx="748" cy="412" r="77" transform="matrix(-0.01933455,0,0,0.01933455,29.725108,14.872178)" id="circle10" style="fill:#000000;stroke:none" />
  <defs id="defs13" />
  <path d="M 24.006309,16.550661 27.481091,16.790529 C 28.070402,16.835153 27.89054,16.675202 28.542076,18.404361 29.175285,20.026477 29.068512,19.461867 29.061689,20.317271 L 29.061689,22.23139 C 29.056454,22.731911 28.981508,22.855104 28.438152,22.859158 28.359541,20.332673 24.741787,20.32376 24.669729,22.873658 L 17.147375,22.878496 C 17.151007,22.221237 16.873063,21.720418 16.428374,21.357108 L 24.006309,21.351065 24.006309,19.380151 24.809902,19.380151 24.809902,17.343376 24.006309,17.343376 24.006309,16.550661 z M 25.481175,17.341563 25.511383,19.380754 28.075629,19.681043 C 28.530318,19.740205 28.556661,19.620559 28.390418,19.215805 L 27.895574,17.896224 C 27.771307,17.48719 27.768492,17.485423 27.415839,17.4618 L 25.481175,17.341563 z M 14.09433,21.360128 C 13.633559,21.729575 13.37328,22.254979 13.377746,22.880305 L 12.281115,22.881516 11.032221,22.439236 11.035849,21.360731 14.09433,21.360128 z" id="path4" style="fill:#d40000;fill-rule:evenodd;stroke:none" />
  <path d="M 24.019604,16.54643 24.019604,17.343376 21.795523,17.343376 21.795523,19.380151 24.019604,19.380151 24.019604,21.402421 11.052765,21.402421 11.052765,16.54643 20.953867,16.54643 20.953867,20.954705 21.306723,20.954705 21.306723,16.54643 24.019604,16.54643 z" id="rect6" style="fill:#d40000;stroke:none" />
  <circle cx="164" cy="412" r="77" transform="matrix(-0.01933455,0,0,0.01933455,29.725108,14.872178)" id="circle8" style="fill:#000000;stroke:none" />
  <rect width="4.3176875" height="3.9375141" x="11.520184" y="17.044601" id="rect3160" style="fill:#333333;fill-opacity:1;stroke:none" />
  <rect width="4.3176875" height="3.9375141" x="11.520184" y="17.044601" id="rect3162" style="fill:#808080;fill-opacity:1;stroke:none" />
  <rect width="4.3176875" height="3.9375141" x="16.109428" y="17.017437" id="rect3166" style="fill:#808080;fill-opacity:1;stroke:none" />
  <path d="M 26.890062,15.806385 26.890062,15.021539" id="path3174" style="fill:none;stroke:#0000ff;stroke-width:0.20812654;stroke-linecap:butt;stroke-linejoin:miter;stroke-miterlimit:4;stroke-opacity:1;stroke-dasharray:none" />
  <path d="M 27.237776,15.887854 27.682871,15.241424" id="path5118" style="fill:none;stroke:#0000ff;stroke-width:0.20812654;stroke-linecap:butt;stroke-linejoin:miter;stroke-miterlimit:4;stroke-opacity:1;stroke-dasharray:none" />
  <path d="M 26.542351,15.860697 26.097251,15.214268" id="path5120" style="fill:none;stroke:#0000ff;stroke-width:0.20812654;stroke-linecap:butt;stroke-linejoin:miter;stroke-miterlimit:4;stroke-opacity:1;stroke-dasharray:none" />
</svg>
