<?xml version="1.0" encoding="UTF-8" standalone="no"?>
<svg xmlns:dc="http://purl.org/dc/elements/1.1/" xmlns:cc="http://creativecommons.org/ns#" xmlns:rdf="http://www.w3.org/1999/02/22-rdf-syntax-ns#" xmlns:svg="http://www.w3.org/2000/svg" xmlns="http://www.w3.org/2000/svg" version="1.1" width="595.27557" height="841.88977" id="svg2">
  <g transform="matrix(0.2680436,0,0,0.2680436,171.23786,396.7392)" id="g5840">
    <path d="M 796.8125,295.5 C 795.93675,295.58953 795.02004,295.90048 794.0625,296.4375 787.79894,299.95034 792.94621,401.31416 766.96875,492.875 757.99251,468.07073 723.97814,435.17912 677.1875,408.96875 613.94367,373.54191 551.37941,363.73074 537.53125,387.0625 523.68311,410.39425 563.75619,458.07317 627,493.5 680.2999,523.35661 733.01238,534.94166 756.59375,523.90625 749.8098,541.56721 741.7405,558.44776 731.6875,573.4375 665.85161,671.60343 558.43455,646.62022 555.53125,652.125 524.93426,710.13598 682.00788,693.04094 747.84375,594.875 763.56137,571.43891 776.13295,541.18734 785.78125,508.96875 786.01584,509.37937 786.14083,509.85743 786.40625,510.25 801.60278,532.7268 861.82618,516.81112 920.84375,474.71875 979.86133,432.62637 1015.4153,380.2268 1000.2188,357.75 985.02229,335.27319 924.79883,351.18887 865.78125,393.28125 836.21031,414.37178 812.51619,438.04363 798.15625,459.25 815.30406,375.03383 813.89002,293.75407 796.8125,295.5 z" id="path2195" style="fill:#35e23e;fill-opacity:1;fill-rule:nonzero;stroke:#12892d;stroke-width:17.00499916;stroke-linecap:round;stroke-linejoin:round;stroke-miterlimit:4;stroke-opacity:1;stroke-dasharray:none;stroke-dashoffset:0" />
    <path d="M 521.87211,275.23304 C 478.85605,245.64532 524.04766,247.12359 474.76752,264.36545 448.25334,273.64209 478.36895,314.58051 486.35702,287.65007 501.20392,237.59626 513.76299,281.03285 482.13659,239.49268 465.12065,217.14283 435.49213,258.43515 463.57296,257.71029 515.7649,256.36306 478.33522,281.73008 508.06918,238.81498 524.06693,215.72537 475.63989,200.307 485.00672,226.78946 502.41621,276.01063 466.72433,248.25173 516.72732,263.2689 543.63042,271.34859 543.32938,220.5272 521.03757,237.61911 479.60529,269.38671 494.97617,226.86374 496.14577,279.05997 496.77504,307.14309 545.01603,291.15212 521.87211,275.23304 z" transform="matrix(4.224992,0,0,4.224992,-1287.368,-859.238)" id="path1549" style="fill:#fa9806;fill-opacity:1;fill-rule:nonzero;stroke:#f58006;stroke-width:4.02476978;stroke-linecap:butt;stroke-linejoin:round;stroke-miterlimit:4;stroke-opacity:1;stroke-dashoffset:0" />
    <path d="M 539.80589,261.93216 A 8.8174267,8.8174267 0 1 1 522.17104,261.93216 8.8174267,8.8174267 0 1 1 539.80589,261.93216 z" transform="matrix(4.224992,0,0,4.224992,-1440.171,-885.7572)" id="path1551" style="fill:#fadc06;fill-opacity:1;fill-rule:nonzero;stroke:#f58006;stroke-width:4.02476978;stroke-linecap:butt;stroke-linejoin:round;stroke-miterlimit:4;stroke-opacity:1;stroke-dashoffset:0" />
  </g>
</svg>
