<?xml version="1.0" encoding="UTF-8" standalone="no"?>
<svg xmlns:dc="http://purl.org/dc/elements/1.1/" xmlns:cc="http://creativecommons.org/ns#" xmlns:rdf="http://www.w3.org/1999/02/22-rdf-syntax-ns#" xmlns:svg="http://www.w3.org/2000/svg" xmlns="http://www.w3.org/2000/svg" version="1.1" width="18.639999" height="18.639999" viewBox="0 0 115 115" id="petrolStation" style="fill:#000000;fill-rule:evenodd;stroke-width:3px">
  <path d="M 41.056805,81.074397 C 33.672813,80.857997 41.438205,55.183437 45.032925,46.263477 45.505125,44.649397 56.077485,45.237677 55.967725,45.793877 55.601045,48.205517 53.924645,47.136757 52.771165,48.582757 L 52.664045,52.562237 C 51.408885,54.165357 48.059765,51.626677 47.196685,54.990517 44.513245,74.868677 49.993045,81.367197 41.056805,81.074397 z M 66.090365,41.650793 43.636125,41.650985 C 43.359685,44.875437 27.341885,83.268797 41.137165,83.153197 51.374045,83.068797 47.777965,79.471597 49.044845,58.251597 48.706005,57.568717 52.313885,57.302997 52.315045,58.417517 L 52.383605,84.481197 71.010645,84.314797 71.010645,48.457197 C 70.392245,47.522517 69.525085,47.957917 68.199085,46.797197 67.081765,45.604837 68.859605,41.650793 66.090365,41.650793 z M 57.596125,51.969037 C 56.583205,52.529917 56.583205,55.952157 57.596125,56.513037 59.318245,57.466957 64.079405,57.466957 65.801565,56.513037 66.814485,55.952157 66.814485,52.529917 65.801565,51.969037 64.079405,51.015317 59.318245,51.015317 57.596125,51.969037 z" id="path5980" />
</svg>
