<?xml version="1.0" encoding="UTF-8" standalone="no"?>
<!-- Created with Inkscape (http://www.inkscape.org/) -->

<svg xmlns:dc="http://purl.org/dc/elements/1.1/" xmlns:cc="http://creativecommons.org/ns#" xmlns:rdf="http://www.w3.org/1999/02/22-rdf-syntax-ns#" xmlns:svg="http://www.w3.org/2000/svg" xmlns="http://www.w3.org/2000/svg" version="1.1" width="18.639999" height="18.639999" viewBox="0 0 36 36" id="symbol-pharmacy">
  <metadata id="metadata6551">
    <rdf:RDF>
      <cc:Work rdf:about="">
        <dc:format>image/svg+xml</dc:format>
        <dc:type rdf:resource="http://purl.org/dc/dcmitype/StillImage" />
        <dc:title></dc:title>
      </cc:Work>
    </rdf:RDF>
  </metadata>
  <defs id="defs6549" />
  <rect width="21.6" height="21.6" rx="1.2" ry="1.2" x="7.1999998" y="7.1999998" id="rect6543" style="fill:#32cd32" />
  <path d="M 20.484,15.516 20.484,10.8 15.516,10.8 15.516,15.516 10.8,15.516 10.8,20.484 15.516,20.484 15.516,25.2 20.484,25.2 20.484,20.484 25.2,20.484 25.2,15.516 20.484,15.516 z M 8.7,27.6 27.3,27.6 A 0.3,0.3 0 0 0 27.6,27.3 L 27.6,8.7 A 0.3,0.3 0 0 0 27.3,8.4 L 8.7,8.4 A 0.3,0.3 0 0 0 8.4,8.7 L 8.4,27.3 A 0.3,0.3 0 0 0 8.7,27.6 z M 9.6,26.4 9.6,9.6 26.4,9.6 26.4,26.4 9.6,26.4 z" id="path6545" style="fill:#ffffff" />
</svg>
