<?xml version="1.0" encoding="UTF-8" standalone="no"?>
<!-- Created with Inkscape (http://www.inkscape.org/) -->

<svg xmlns:dc="http://purl.org/dc/elements/1.1/" xmlns:cc="http://creativecommons.org/ns#" xmlns:rdf="http://www.w3.org/1999/02/22-rdf-syntax-ns#" xmlns:svg="http://www.w3.org/2000/svg" xmlns="http://www.w3.org/2000/svg" version="1.1" width="32.619999" height="32.619999" viewBox="0 0 600 600" id="symbol-railway-crossing">
  <metadata id="metadata7669">
    <rdf:RDF>
      <cc:Work rdf:about="">
        <dc:format>image/svg+xml</dc:format>
        <dc:type rdf:resource="http://purl.org/dc/dcmitype/StillImage" />
        <dc:title></dc:title>
      </cc:Work>
    </rdf:RDF>
  </metadata>
  <defs id="defs7667" />
  <g transform="matrix(0.3,0,0,0.3,231.65,247.78125)" id="g7659">
    <path d="M 1.5,4.5 67.5,6 257.5,97.4 456,0 519,4.5 504,52.5 319.5,139.5 495,220.5 510,271.5 451.5,277.5 258,178.5 C 258,178.5 69,274.5 64.5,277.5 60,280.5 0,279 0,279 L 6,228 178.5,142.5 12,63 1.5,4.5 z" id="path7661" style="fill:#ff0000" />
    <path d="M 49.5,21 33,49.5 219,141 36,237 52.5,262.5 258,156 454.5,261 475.5,228 286.5,136.5 475.5,49.5 454.5,19.5 257.8,116.2 49.5,21 z" id="path7663" style="fill:#ffffff" />
  </g>
</svg>
