<?xml version="1.0" encoding="UTF-8" standalone="no"?>
<!-- Created with Inkscape (http://www.inkscape.org/) -->

<svg xmlns:dc="http://purl.org/dc/elements/1.1/" xmlns:cc="http://creativecommons.org/ns#" xmlns:rdf="http://www.w3.org/1999/02/22-rdf-syntax-ns#" xmlns:svg="http://www.w3.org/2000/svg" xmlns="http://www.w3.org/2000/svg" version="1.1" width="18.639999" height="18.639999" viewBox="0 0 80 80" id="recycling" style="fill:#32cd32;stroke:none">
  <metadata id="metadata5821">
    <rdf:RDF>
      <cc:Work rdf:about="">
        <dc:format>image/svg+xml</dc:format>
        <dc:type rdf:resource="http://purl.org/dc/dcmitype/StillImage" />
        <dc:title></dc:title>
      </cc:Work>
    </rdf:RDF>
  </metadata>
  <defs id="defs5819" />
  <path d="M 46.005356,39.369129 52.845356,35.249129 55.925356,41.209129 C 56.645356,44.449129 52.605356,45.609129 49.325356,45.409129 L 46.005356,39.369129 z" id="path5805" />
  <path d="M 44.445356,43.609129 40.845356,49.969129 44.445356,56.449129 44.525356,53.849129 47.805356,53.849129 C 49.005356,53.969129 50.565356,53.169129 51.165356,52.049129 L 55.365356,44.249129 C 54.005356,45.649129 52.205356,46.009129 50.125356,46.009129 L 44.565356,46.009129 44.445356,43.609129 z" id="path5807" />
  <path d="M 36.405356,35.729129 29.485356,31.729129 33.165356,26.129129 C 35.605356,23.929129 38.645356,26.889129 40.045356,29.849129 L 36.365356,35.729129 z" id="path5809" />
  <path d="M 40.845356,35.049129 48.165356,35.089129 52.045356,28.809129 49.725356,29.969129 48.125356,27.089129 C 47.645356,26.009129 46.205356,25.009129 44.925356,25.049129 L 36.085356,25.129129 C 37.965356,25.689129 39.165356,27.089129 40.165356,28.889129 L 42.885356,33.769129 40.845356,35.049129 z" id="path5811" />
  <path d="M 24.165356,35.409129 26.325356,37.049129 24.325356,40.649129 C 23.285356,42.569129 25.045356,44.289129 26.125356,44.849129 27.205356,45.449129 28.885356,45.529129 30.485356,45.529129 L 33.325356,40.969129 35.445356,42.089129 31.725356,35.329129 24.165356,35.409129 z" id="path5813" />
  <path d="M 24.485356,44.169129 29.085356,52.489129 C 30.005356,53.649129 31.765356,53.929129 33.565356,53.889129 L 38.405356,53.889129 38.405356,46.009129 29.205356,45.929129 C 27.805356,46.009129 25.925356,45.729129 24.485356,44.169129 z" id="path5815" />
</svg>
