<?xml version="1.0" encoding="UTF-8" standalone="no"?>
<svg xmlns:dc="http://purl.org/dc/elements/1.1/" xmlns:cc="http://creativecommons.org/ns#" xmlns:rdf="http://www.w3.org/1999/02/22-rdf-syntax-ns#" xmlns:svg="http://www.w3.org/2000/svg" xmlns="http://www.w3.org/2000/svg" version="1.1" width="20" height="20" viewBox="10 0 90 115" id="symbol-restaurant" style="fill:#000000;stroke:none">
  <path d="M 41.956843,35.111351 C 39.836843,35.143351 40.508843,43.615351 40.836843,47.355351 40.852843,48.351351 41.148843,50.095351 44.332843,50.047351 44.236843,75.999351 43.512843,80.251351 47.228843,80.199351 50.944843,80.143351 50.076843,75.915351 48.580843,49.987351 51.764843,49.939351 52.260843,47.935351 52.244843,46.939351 52.444843,43.191351 52.572843,34.955351 50.448843,34.987351 48.328843,35.019351 50.564843,46.803351 48.712843,47.079351 46.148843,44.587351 48.328843,35.019351 46.204843,35.051351 44.080843,35.079351 46.376843,46.991351 44.256843,47.023351 41.904843,47.171351 43.904843,35.171351 41.904843,35.171351 z" id="path3588" />
  <path d="M 63.104843,52.371351 C 63.104843,74.771351 64.304843,79.971351 61.104843,79.971351 57.104843,79.971351 59.104843,75.171351 59.104843,52.371351 49.904843,51.571351 55.504843,34.771351 60.304843,34.371351 65.904843,34.371351 71.104843,51.971351 63.104843,52.371351 z" id="path3590" />
</svg>
