<?xml version="1.0" encoding="UTF-8" standalone="no"?>
<svg xmlns:dc="http://purl.org/dc/elements/1.1/" xmlns:cc="http://creativecommons.org/ns#" xmlns:rdf="http://www.w3.org/1999/02/22-rdf-syntax-ns#" xmlns:svg="http://www.w3.org/2000/svg" xmlns="http://www.w3.org/2000/svg" version="1.1" width="4.6506362" height="7.9701681" viewBox="10 0 20.927863 45.828467" id="symbol-restaurant" style="fill:#000000;stroke:none">
  <path d="M 8.5793689,0.74 C 6.4593689,0.772 7.1313689,9.244 7.4593689,12.984 7.4753689,13.98 7.7713689,15.724 10.955369,15.676 10.859369,41.628 10.135369,45.88 13.851369,45.828 17.567369,45.772 16.699369,41.544 15.203369,15.616 18.387369,15.568 18.883369,13.564 18.867369,12.568 19.067369,8.82 19.195369,0.584 17.071369,0.616 14.951369,0.648 17.187369,12.432 15.335369,12.708 12.771369,10.216 14.951369,0.648 12.827369,0.68 10.703369,0.708 12.999369,12.62 10.879369,12.652 8.5273689,12.8 10.527369,0.8 8.5273689,0.8 z" id="path3588" />
  <path d="M 29.727369,18 C 29.727369,40.4 30.927369,45.6 27.727369,45.6 23.727369,45.6 25.727369,40.8 25.727369,18 16.527369,17.2 22.127369,0.4 26.927369,0 32.527369,0 37.727369,17.6 29.727369,18 z" id="path3590" />
</svg>
