<?xml version="1.0" encoding="UTF-8" standalone="no"?>
<svg xmlns:dc="http://purl.org/dc/elements/1.1/" xmlns:cc="http://creativecommons.org/ns#" xmlns:rdf="http://www.w3.org/1999/02/22-rdf-syntax-ns#" xmlns:svg="http://www.w3.org/2000/svg" xmlns="http://www.w3.org/2000/svg" version="1.1" width="46.599998" height="46.599998" viewBox="0 0 300 300" id="symbol-soccer-borderless">
  <path d="M 150.67269,149.61814 C 150.67269,149.61814 141.92797,157.13132 140.04158,158.5555 138.1249,160.00258 137.08671,160.59219 135.54129,158.82079 134.01891,157.07583 135.31291,156.30441 136.75575,154.69667 138.16773,153.1233 147.04344,145.18238 147.04344,145.18238 L 150.67269,149.61814 z" id="path4755" />
  <path d="M 152.78974,151.89909 C 152.78974,151.89909 128.47273,181.84555 127.01955,183.76734 125.54651,185.7154 126.13548,186.84837 127.32865,187.77721 128.49453,188.68482 130.12636,188.46182 131.36699,186.91182 132.5863,185.38842 156.65971,155.29997 156.65971,155.29997 L 152.78974,151.89909 z" id="path4757" />
  <path d="M 155.2008,183.07107 A 4.9628311,5.0119095 0 1 1 145.27516,183.07107 4.9628311,5.0119095 0 1 1 155.2008,183.07107 z" id="path4759" style="fill:#000000" />
  <path d="M 157.90921,128.67721 C 163.86373,127.59592 168.70954,127.12561 174.26848,131.28651 L 183.56217,139.55406 C 186.20086,142.76734 186.25312,146.26066 182.27215,148.3494 178.47766,150.34028 173.40967,152.35121 170.88716,153.14769 168.38809,153.9368 167.2432,153.90561 166.90974,152.25837 166.57773,150.6183 168.34534,149.60451 169.97834,148.88682 171.6739,148.1417 173.32219,147.71387 176.78004,145.52512 180.27276,143.31428 179.1938,142.65153 176.62368,140.47266 174.03417,138.27736 170.85374,137.62755 168.93265,140.31638 166.23692,143.92101 162.15327,150.37913 161.3101,151.4277 160.48049,152.45938 159.62058,153.23416 158.3414,152.61299 157.0729,151.99701 150.48928,146.72059 149.57371,145.28522 148.69921,143.9143 148.62186,143.56708 149.7397,142.02672 150.84436,140.50449 153.21839,137.64846 153.21839,137.64846 156.13153,134.00068 157.41849,133.54188 152.24113,135.25419 147.09901,136.95487 137.73622,140.11068 130.47783,142.63302 128.18466,143.2789 127.1547,143.78701 126.52976,141.88049 125.8894,139.92695 126.53108,139.67205 128.66019,138.77283 130.7893,137.87362 155.36106,129.11399 157.90921,128.67721 z" id="path4761" style="fill:#000000;fill-opacity:1" />
  <path d="M 175.86524,121.34848 A 5.2771768,5.2771766 0 0 1 165.31089,121.34848 5.2771768,5.2771766 0 1 1 175.86524,121.34848 z" id="path4763" />
</svg>
