<?xml version="1.0" encoding="UTF-8" standalone="no"?>
<!-- Created with Inkscape (http://www.inkscape.org/) -->

<svg xmlns:dc="http://purl.org/dc/elements/1.1/" xmlns:cc="http://creativecommons.org/ns#" xmlns:rdf="http://www.w3.org/1999/02/22-rdf-syntax-ns#" xmlns:svg="http://www.w3.org/2000/svg" xmlns="http://www.w3.org/2000/svg" version="1.1" width="37.279999" height="37.279999" viewBox="0 0 300 300" id="symbol-tennis">
  <metadata id="metadata5736">
    <rdf:RDF>
      <cc:Work rdf:about="">
        <dc:format>image/svg+xml</dc:format>
        <dc:type rdf:resource="http://purl.org/dc/dcmitype/StillImage" />
        <dc:title></dc:title>
      </cc:Work>
    </rdf:RDF>
  </metadata>
  <defs id="defs5734" />
  <path d="M 145.02592,133.439 C 146.27251,130.67227 154.69811,127.24886 160.13767,127.72333 165.57154,128.19728 171.70893,128.49447 176.91315,129.38998 182.1295,130.28759 180.95171,135.04426 175.86432,134.29114 170.77693,133.53802 168.09282,133.06415 165.30595,133.02626 162.37535,132.98642 155.92657,133.53006 155.92657,133.53006 155.92657,133.53006 164.44481,146.39587 163.72179,148.41852 162.94943,150.57926 153.81043,151.41118 152.92875,150.85599 151.74583,150.1111 148.18287,143.46646 148.18287,143.46646 148.18287,143.46646 148.0972,147.9967 146.24893,150.12301 144.46499,152.17533 139.86064,154.71434 134.80811,157.53493 129.84237,160.30707 128.49699,155.90342 133.01745,153.40226 137.62634,150.85216 139.08799,150.78582 141.51728,147.14349 143.73511,143.81822 143.67492,136.43738 145.02592,133.439 z" id="path5718" />
  <path d="M 153.26793,124.52369 A 4.6415784,4.7889301 8.6689198 0 1 144.09083,123.12449 4.6415784,4.7889301 8.6689198 1 1 153.26793,124.52369 z" id="path5720" />
  <path d="M 128.57581,136.38766 A 8.1043451,5.2309863 68.588857 0 1 118.83587,140.20688 8.1043451,5.2309863 68.588857 1 1 128.57581,136.38766 z" id="path5722" style="fill:none;stroke:#000000;stroke-width:2.35762596;stroke-linejoin:miter;stroke-miterlimit:4" />
  <path d="M 126.73518,145.67894 132.18128,157.39495 132.18128,157.39495" id="path5724" style="fill:none;stroke:#000000;stroke-width:2.81599998;stroke-linecap:butt;stroke-linejoin:miter;stroke-miterlimit:4" />
  <path d="M 153.83372,158.0888 C 155.56103,162.3929 158.34673,169.10573 159.82174,172.35621 161.4942,176.04787 166.29947,174.78371 164.59082,170.85506 162.89739,166.96141 160.10919,161.07409 158.38379,156.73795 156.88543,152.97226 152.23814,154.11286 153.83372,158.0888 z" id="path5726" />
  <path d="M 160.33196,153.80343 C 159.28727,151.8799 163.75306,151.30204 164.60806,152.89653 165.45373,154.47362 176.48266,174.58839 178.39319,178.29325 180.30435,181.99927 175.47178,183.53968 173.83619,180.16048 172.29133,176.9687 161.40366,155.7767 160.33196,153.80343 z" id="path5728" />
  <rect width="68.965874" height="68.965874" ry="5.5732851" x="114.51456" y="116.31811" id="rect5730" style="fill:none;stroke:#000000;stroke-width:3.84000015;stroke-linejoin:round" />
</svg>
